<mxfile host="app.diagrams.net" modified="2021-02-02T08:23:28.606Z" agent="5.0 (X11)" etag="UlLiWH8oucp52ApSuzbA" version="14.2.9" type="github">
  <diagram id="aZlOReppdM6Vbn_RqVCT" name="Page-1">
    <mxGraphModel dx="1350" dy="804" grid="1" gridSize="10" guides="1" tooltips="1" connect="1" arrows="1" fold="1" page="1" pageScale="1" pageWidth="1200" pageHeight="1600" math="0" shadow="0">
      <root>
        <mxCell id="0" />
        <mxCell id="1" parent="0" />
        <mxCell id="m8YfleF8tQ-FQQvyi_9Q-1" value="Logger module" style="shape=process;whiteSpace=wrap;html=1;backgroundOutline=1;" vertex="1" parent="1">
          <mxGeometry x="610" y="200" width="120" height="60" as="geometry" />
        </mxCell>
        <mxCell id="m8YfleF8tQ-FQQvyi_9Q-15" style="edgeStyle=orthogonalEdgeStyle;rounded=0;orthogonalLoop=1;jettySize=auto;html=1;exitX=1;exitY=0.5;exitDx=0;exitDy=0;entryX=0.5;entryY=1;entryDx=0;entryDy=0;" edge="1" parent="1" source="m8YfleF8tQ-FQQvyi_9Q-2" target="m8YfleF8tQ-FQQvyi_9Q-4">
          <mxGeometry relative="1" as="geometry" />
        </mxCell>
        <mxCell id="m8YfleF8tQ-FQQvyi_9Q-16" style="edgeStyle=orthogonalEdgeStyle;rounded=0;orthogonalLoop=1;jettySize=auto;html=1;exitX=1;exitY=0.5;exitDx=0;exitDy=0;" edge="1" parent="1" source="m8YfleF8tQ-FQQvyi_9Q-2" target="m8YfleF8tQ-FQQvyi_9Q-14">
          <mxGeometry relative="1" as="geometry" />
        </mxCell>
        <mxCell id="m8YfleF8tQ-FQQvyi_9Q-2" value="Parser module" style="shape=process;whiteSpace=wrap;html=1;backgroundOutline=1;" vertex="1" parent="1">
          <mxGeometry x="610" y="370" width="120" height="60" as="geometry" />
        </mxCell>
        <mxCell id="m8YfleF8tQ-FQQvyi_9Q-6" style="edgeStyle=orthogonalEdgeStyle;rounded=0;orthogonalLoop=1;jettySize=auto;html=1;exitX=1;exitY=0.5;exitDx=0;exitDy=0;" edge="1" parent="1" source="m8YfleF8tQ-FQQvyi_9Q-3" target="m8YfleF8tQ-FQQvyi_9Q-2">
          <mxGeometry relative="1" as="geometry" />
        </mxCell>
        <mxCell id="m8YfleF8tQ-FQQvyi_9Q-3" value="Priority Queue" style="ellipse;whiteSpace=wrap;html=1;aspect=fixed;" vertex="1" parent="1">
          <mxGeometry x="454" y="360" width="80" height="80" as="geometry" />
        </mxCell>
        <mxCell id="m8YfleF8tQ-FQQvyi_9Q-5" style="edgeStyle=orthogonalEdgeStyle;rounded=0;orthogonalLoop=1;jettySize=auto;html=1;exitX=1;exitY=0.5;exitDx=0;exitDy=0;" edge="1" parent="1" source="m8YfleF8tQ-FQQvyi_9Q-4" target="m8YfleF8tQ-FQQvyi_9Q-1">
          <mxGeometry relative="1" as="geometry" />
        </mxCell>
        <mxCell id="m8YfleF8tQ-FQQvyi_9Q-4" value="Simple Queue" style="ellipse;whiteSpace=wrap;html=1;aspect=fixed;" vertex="1" parent="1">
          <mxGeometry x="454" y="190" width="80" height="80" as="geometry" />
        </mxCell>
        <mxCell id="m8YfleF8tQ-FQQvyi_9Q-12" style="edgeStyle=orthogonalEdgeStyle;rounded=0;orthogonalLoop=1;jettySize=auto;html=1;exitX=1;exitY=0.5;exitDx=0;exitDy=0;entryX=0;entryY=0.5;entryDx=0;entryDy=0;" edge="1" parent="1" source="m8YfleF8tQ-FQQvyi_9Q-10" target="m8YfleF8tQ-FQQvyi_9Q-11">
          <mxGeometry relative="1" as="geometry" />
        </mxCell>
        <mxCell id="m8YfleF8tQ-FQQvyi_9Q-10" value="Bluetooth input" style="rhombus;whiteSpace=wrap;html=1;" vertex="1" parent="1">
          <mxGeometry x="100" y="360" width="80" height="80" as="geometry" />
        </mxCell>
        <mxCell id="m8YfleF8tQ-FQQvyi_9Q-13" style="edgeStyle=orthogonalEdgeStyle;rounded=0;orthogonalLoop=1;jettySize=auto;html=1;exitX=1;exitY=0.5;exitDx=0;exitDy=0;" edge="1" parent="1" source="m8YfleF8tQ-FQQvyi_9Q-11" target="m8YfleF8tQ-FQQvyi_9Q-3">
          <mxGeometry relative="1" as="geometry" />
        </mxCell>
        <mxCell id="m8YfleF8tQ-FQQvyi_9Q-11" value="Serial Event listener" style="rounded=0;whiteSpace=wrap;html=1;" vertex="1" parent="1">
          <mxGeometry x="230" y="370" width="120" height="60" as="geometry" />
        </mxCell>
        <mxCell id="m8YfleF8tQ-FQQvyi_9Q-17" style="edgeStyle=orthogonalEdgeStyle;rounded=0;orthogonalLoop=1;jettySize=auto;html=1;exitX=1;exitY=0.5;exitDx=0;exitDy=0;entryX=0;entryY=0.5;entryDx=0;entryDy=0;" edge="1" parent="1" source="m8YfleF8tQ-FQQvyi_9Q-14" target="m8YfleF8tQ-FQQvyi_9Q-4">
          <mxGeometry relative="1" as="geometry">
            <Array as="points">
              <mxPoint x="1000" y="400" />
              <mxPoint x="1000" y="350" />
              <mxPoint x="434" y="350" />
              <mxPoint x="434" y="230" />
            </Array>
          </mxGeometry>
        </mxCell>
        <mxCell id="m8YfleF8tQ-FQQvyi_9Q-14" value="Action performed" style="rounded=1;whiteSpace=wrap;html=1;" vertex="1" parent="1">
          <mxGeometry x="860" y="370" width="120" height="60" as="geometry" />
        </mxCell>
      </root>
    </mxGraphModel>
  </diagram>
</mxfile>
